<mxfile host="Electron" agent="Mozilla/5.0 (Windows NT 10.0; Win64; x64) AppleWebKit/537.36 (KHTML, like Gecko) draw.io/26.2.15 Chrome/134.0.6998.205 Electron/35.2.1 Safari/537.36" version="26.2.15" pages="2">
  <diagram id="8yKRzX55yw8iAQM8X-Ct" name="苹果">
    <mxGraphModel dx="1072" dy="636" grid="0" gridSize="10" guides="1" tooltips="1" connect="1" arrows="1" fold="1" page="1" pageScale="1" pageWidth="827" pageHeight="1169" math="0" shadow="0">
      <root>
        <mxCell id="0" />
        <mxCell id="1" parent="0" />
        <mxCell id="dYx-z53MeqwJ_cPxLfN_-7" style="edgeStyle=orthogonalEdgeStyle;rounded=0;orthogonalLoop=1;jettySize=auto;html=1;" edge="1" parent="1" source="dYx-z53MeqwJ_cPxLfN_-1" target="dYx-z53MeqwJ_cPxLfN_-8">
          <mxGeometry relative="1" as="geometry">
            <mxPoint x="600.9999999999998" y="46" as="targetPoint" />
          </mxGeometry>
        </mxCell>
        <mxCell id="dYx-z53MeqwJ_cPxLfN_-18" value="&lt;span style=&quot;font-size: 12px; text-wrap-mode: wrap; background-color: rgb(236, 236, 236);&quot;&gt;特性:&lt;/span&gt;&lt;span style=&quot;color: light-dark(rgb(0, 0, 0), rgb(255, 255, 255)); text-wrap-mode: wrap; background-color: transparent; font-family: &amp;quot;Times New Roman&amp;quot;; font-size: 7pt; text-indent: -18pt;&quot;&gt;&amp;nbsp; &amp;nbsp;&amp;nbsp;&lt;/span&gt;" style="edgeLabel;html=1;align=center;verticalAlign=middle;resizable=0;points=[];" vertex="1" connectable="0" parent="dYx-z53MeqwJ_cPxLfN_-7">
          <mxGeometry x="-0.1232" y="-1" relative="1" as="geometry">
            <mxPoint as="offset" />
          </mxGeometry>
        </mxCell>
        <mxCell id="dYx-z53MeqwJ_cPxLfN_-16" style="edgeStyle=orthogonalEdgeStyle;rounded=0;orthogonalLoop=1;jettySize=auto;html=1;" edge="1" parent="1" source="dYx-z53MeqwJ_cPxLfN_-1" target="dYx-z53MeqwJ_cPxLfN_-12">
          <mxGeometry relative="1" as="geometry" />
        </mxCell>
        <mxCell id="dYx-z53MeqwJ_cPxLfN_-17" value="&lt;div style=&quot;font-size: 12px; text-align: left; background-color: rgb(236, 236, 236);&quot;&gt;数值:&lt;/div&gt;&lt;div&gt;&lt;br&gt;&lt;/div&gt;&lt;span style=&quot;font-size: 12px; text-align: left; background-color: rgb(236, 236, 236);&quot;&gt;&lt;/span&gt;" style="edgeLabel;html=1;align=center;verticalAlign=middle;resizable=0;points=[];" vertex="1" connectable="0" parent="dYx-z53MeqwJ_cPxLfN_-16">
          <mxGeometry x="0.2699" y="3" relative="1" as="geometry">
            <mxPoint as="offset" />
          </mxGeometry>
        </mxCell>
        <mxCell id="dYx-z53MeqwJ_cPxLfN_-1" value="苹果" style="ellipse;whiteSpace=wrap;html=1;aspect=fixed;fillColor=#f8cecc;strokeColor=#b85450;" vertex="1" parent="1">
          <mxGeometry x="383" y="136" width="80" height="80" as="geometry" />
        </mxCell>
        <mxCell id="dYx-z53MeqwJ_cPxLfN_-22" style="edgeStyle=orthogonalEdgeStyle;rounded=0;orthogonalLoop=1;jettySize=auto;html=1;" edge="1" parent="1" source="dYx-z53MeqwJ_cPxLfN_-12" target="dYx-z53MeqwJ_cPxLfN_-21">
          <mxGeometry relative="1" as="geometry" />
        </mxCell>
        <mxCell id="dYx-z53MeqwJ_cPxLfN_-12" value="&lt;div&gt;&lt;span style=&quot;background-color: transparent; color: light-dark(rgb(0, 0, 0), rgb(255, 255, 255));&quot;&gt;生长最大进度为:100&lt;/span&gt;&lt;/div&gt;&lt;div&gt;每秒基础生长速度为:1(使用GameValue)&lt;/div&gt;" style="rounded=0;html=1;align=left;horizontal=1;" vertex="1" parent="1">
          <mxGeometry x="54" y="245" width="220" height="60" as="geometry" />
        </mxCell>
        <mxCell id="dYx-z53MeqwJ_cPxLfN_-15" value="" style="group" vertex="1" connectable="0" parent="1">
          <mxGeometry x="276" y="356" width="359" height="183" as="geometry" />
        </mxCell>
        <mxCell id="dYx-z53MeqwJ_cPxLfN_-10" style="edgeStyle=orthogonalEdgeStyle;rounded=0;orthogonalLoop=1;jettySize=auto;html=1;" edge="1" parent="dYx-z53MeqwJ_cPxLfN_-15" source="dYx-z53MeqwJ_cPxLfN_-8" target="dYx-z53MeqwJ_cPxLfN_-9">
          <mxGeometry relative="1" as="geometry" />
        </mxCell>
        <mxCell id="dYx-z53MeqwJ_cPxLfN_-8" value="&lt;span style=&quot;font-family: &amp;quot;Times New Roman&amp;quot;; font-size: 7pt; background-color: transparent; color: light-dark(rgb(0, 0, 0), rgb(255, 255, 255)); text-indent: -18pt;&quot;&gt;&amp;nbsp;&lt;/span&gt;&lt;div&gt;&lt;span style=&quot;text-indent: -18pt; background-color: transparent; color: light-dark(rgb(0, 0, 0), rgb(255, 255, 255));&quot;&gt;在周围没有其他&lt;/span&gt;&lt;span style=&quot;text-indent: -18pt; background-color: transparent; color: light-dark(rgb(0, 0, 0), rgb(255, 255, 255));&quot; lang=&quot;EN-US&quot;&gt;Item&lt;/span&gt;&lt;span style=&quot;text-indent: -18pt; background-color: transparent; color: light-dark(rgb(0, 0, 0), rgb(255, 255, 255));&quot;&gt;物体会如同&lt;/span&gt;&lt;span style=&quot;text-indent: -18pt; background-color: transparent; color: light-dark(rgb(0, 0, 0), rgb(255, 255, 255));&quot; lang=&quot;EN-US&quot;&gt;weed&lt;/span&gt;&lt;span style=&quot;text-indent: -18pt; background-color: transparent; color: light-dark(rgb(0, 0, 0), rgb(255, 255, 255));&quot;&gt;野草一样生长&lt;/span&gt;&lt;/div&gt;&lt;div&gt;&lt;span style=&quot;text-indent: -18pt; background-color: transparent; color: light-dark(rgb(0, 0, 0), rgb(255, 255, 255));&quot;&gt;在生长到一定程度后会转变为苹果树&lt;/span&gt;&lt;br&gt;&lt;p style=&quot;margin-left:18.0pt;mso-add-space:auto;&lt;br/&gt;text-indent:-18.0pt;mso-list:l0 level1 lfo1&quot; class=&quot;MsoListParagraph&quot;&gt;&lt;span lang=&quot;EN-US&quot;&gt;&lt;/span&gt;&lt;/p&gt;&lt;/div&gt;" style="rounded=0;whiteSpace=wrap;html=1;" vertex="1" parent="dYx-z53MeqwJ_cPxLfN_-15">
          <mxGeometry width="305" height="96" as="geometry" />
        </mxCell>
        <mxCell id="dYx-z53MeqwJ_cPxLfN_-9" value="苹果转变为苹果树需要在草地上 也就是在Tag为Fertile的TileMap上" style="rounded=0;whiteSpace=wrap;html=1;" vertex="1" parent="dYx-z53MeqwJ_cPxLfN_-15">
          <mxGeometry x="92.5" y="127" width="120" height="60" as="geometry" />
        </mxCell>
        <mxCell id="dYx-z53MeqwJ_cPxLfN_-21" value="在生长进度到达100时转变为苹果树" style="rounded=0;whiteSpace=wrap;html=1;" vertex="1" parent="1">
          <mxGeometry x="76" y="398" width="120" height="60" as="geometry" />
        </mxCell>
        <mxCell id="dYx-z53MeqwJ_cPxLfN_-23" style="edgeStyle=orthogonalEdgeStyle;rounded=0;orthogonalLoop=1;jettySize=auto;html=1;" edge="1" parent="1" source="dYx-z53MeqwJ_cPxLfN_-8" target="dYx-z53MeqwJ_cPxLfN_-21">
          <mxGeometry relative="1" as="geometry" />
        </mxCell>
      </root>
    </mxGraphModel>
  </diagram>
  <diagram id="hmaHnve6Dc4FckPYXfk5" name="苹果树">
    <mxGraphModel dx="2122" dy="768" grid="1" gridSize="10" guides="1" tooltips="1" connect="1" arrows="1" fold="1" page="1" pageScale="1" pageWidth="827" pageHeight="1169" math="0" shadow="0">
      <root>
        <mxCell id="0" />
        <mxCell id="1" parent="0" />
        <mxCell id="p4ktpzRXvJhZHv-Aj7Tn-3" value="--枚举 生长阶段{幼年,生长,成熟}&lt;div&gt;--最大生长值:300(GV)&lt;/div&gt;&lt;div&gt;--特殊生长点:0-100(GV) 100-200 200-300&lt;/div&gt;&lt;div&gt;--生长速度:1单位/秒 (GV);&lt;/div&gt;&lt;div&gt;--当前生长进度;&lt;/div&gt;&lt;div&gt;&lt;br&gt;&lt;/div&gt;&lt;div&gt;--当前生产进度:&lt;/div&gt;&lt;div&gt;--最大生产进度:200(GV)&lt;/div&gt;&lt;div&gt;--生产速度:1单位每秒(GV)&lt;/div&gt;&lt;div&gt;--生产进度点:列表&amp;lt;float,Loot&amp;gt;&amp;nbsp;&lt;/div&gt;" style="rounded=0;html=1;align=left;" vertex="1" parent="1">
          <mxGeometry x="-70" y="365" width="250" height="220" as="geometry" />
        </mxCell>
        <mxCell id="p4ktpzRXvJhZHv-Aj7Tn-4" value="" style="group" vertex="1" connectable="0" parent="1">
          <mxGeometry x="340" y="150" width="180" height="270" as="geometry" />
        </mxCell>
        <mxCell id="p4ktpzRXvJhZHv-Aj7Tn-1" value="" style="rounded=0;whiteSpace=wrap;html=1;fillColor=#ffe6cc;strokeColor=#d79b00;" vertex="1" parent="p4ktpzRXvJhZHv-Aj7Tn-4">
          <mxGeometry x="90" y="120" width="20" height="150" as="geometry" />
        </mxCell>
        <mxCell id="p4ktpzRXvJhZHv-Aj7Tn-2" value="" style="ellipse;shape=cloud;whiteSpace=wrap;html=1;fillColor=#d5e8d4;strokeColor=#82b366;" vertex="1" parent="p4ktpzRXvJhZHv-Aj7Tn-4">
          <mxGeometry width="180" height="160" as="geometry" />
        </mxCell>
        <mxCell id="p4ktpzRXvJhZHv-Aj7Tn-5" style="edgeStyle=orthogonalEdgeStyle;rounded=0;orthogonalLoop=1;jettySize=auto;html=1;" edge="1" parent="1" source="p4ktpzRXvJhZHv-Aj7Tn-2" target="p4ktpzRXvJhZHv-Aj7Tn-3">
          <mxGeometry relative="1" as="geometry" />
        </mxCell>
        <mxCell id="p4ktpzRXvJhZHv-Aj7Tn-6" value="数值" style="edgeLabel;html=1;align=center;verticalAlign=middle;resizable=0;points=[];" vertex="1" connectable="0" parent="p4ktpzRXvJhZHv-Aj7Tn-5">
          <mxGeometry x="-0.5667" y="3" relative="1" as="geometry">
            <mxPoint as="offset" />
          </mxGeometry>
        </mxCell>
        <mxCell id="p4ktpzRXvJhZHv-Aj7Tn-8" style="edgeStyle=orthogonalEdgeStyle;rounded=0;orthogonalLoop=1;jettySize=auto;html=1;" edge="1" parent="1" source="p4ktpzRXvJhZHv-Aj7Tn-7" target="p4ktpzRXvJhZHv-Aj7Tn-1">
          <mxGeometry relative="1" as="geometry" />
        </mxCell>
        <mxCell id="p4ktpzRXvJhZHv-Aj7Tn-16" value="方法" style="edgeLabel;html=1;align=center;verticalAlign=middle;resizable=0;points=[];" vertex="1" connectable="0" parent="p4ktpzRXvJhZHv-Aj7Tn-8">
          <mxGeometry x="-0.6649" y="-1" relative="1" as="geometry">
            <mxPoint as="offset" />
          </mxGeometry>
        </mxCell>
        <mxCell id="p4ktpzRXvJhZHv-Aj7Tn-15" style="edgeStyle=orthogonalEdgeStyle;rounded=0;orthogonalLoop=1;jettySize=auto;html=1;" edge="1" parent="1" source="p4ktpzRXvJhZHv-Aj7Tn-7" target="p4ktpzRXvJhZHv-Aj7Tn-12">
          <mxGeometry relative="1" as="geometry" />
        </mxCell>
        <mxCell id="p4ktpzRXvJhZHv-Aj7Tn-7" value="生长阶段不同&lt;div&gt;树将会切换不同的缩放&lt;/div&gt;" style="rounded=0;html=1;" vertex="1" parent="1">
          <mxGeometry x="170" y="610" width="120" height="60" as="geometry" />
        </mxCell>
        <mxCell id="p4ktpzRXvJhZHv-Aj7Tn-12" value="1 幼年:0.25&lt;div&gt;2 生长:0.5&lt;/div&gt;&lt;div&gt;3 成熟:1.0&lt;/div&gt;" style="rounded=0;html=1;align=left;" vertex="1" parent="1">
          <mxGeometry x="140" y="730" width="180" height="100" as="geometry" />
        </mxCell>
        <mxCell id="p4ktpzRXvJhZHv-Aj7Tn-19" style="edgeStyle=orthogonalEdgeStyle;rounded=0;orthogonalLoop=1;jettySize=auto;html=1;" edge="1" parent="1" source="p4ktpzRXvJhZHv-Aj7Tn-18" target="p4ktpzRXvJhZHv-Aj7Tn-2">
          <mxGeometry relative="1" as="geometry" />
        </mxCell>
        <mxCell id="p4ktpzRXvJhZHv-Aj7Tn-20" value="方法" style="edgeLabel;html=1;align=center;verticalAlign=middle;resizable=0;points=[];" vertex="1" connectable="0" parent="p4ktpzRXvJhZHv-Aj7Tn-19">
          <mxGeometry x="-0.6347" y="-7" relative="1" as="geometry">
            <mxPoint as="offset" />
          </mxGeometry>
        </mxCell>
        <mxCell id="p4ktpzRXvJhZHv-Aj7Tn-24" style="edgeStyle=orthogonalEdgeStyle;rounded=0;orthogonalLoop=1;jettySize=auto;html=1;" edge="1" parent="1" source="p4ktpzRXvJhZHv-Aj7Tn-18" target="p4ktpzRXvJhZHv-Aj7Tn-23">
          <mxGeometry relative="1" as="geometry" />
        </mxCell>
        <mxCell id="p4ktpzRXvJhZHv-Aj7Tn-18" value="--生产进度大于生产进度点时生产出对应的物品&lt;div&gt;&lt;br&gt;&lt;/div&gt;" style="rounded=0;html=1;align=left;" vertex="1" parent="1">
          <mxGeometry x="610" y="500" width="180" height="100" as="geometry" />
        </mxCell>
        <mxCell id="p4ktpzRXvJhZHv-Aj7Tn-23" value="不同基因的生产进度点不一样" style="rounded=0;html=1;align=left;" vertex="1" parent="1">
          <mxGeometry x="920" y="500" width="180" height="100" as="geometry" />
        </mxCell>
      </root>
    </mxGraphModel>
  </diagram>
</mxfile>
